<?xml version="1.0" encoding="UTF-8"?>
<svg xmlns="http://www.w3.org/2000/svg" width="210" height="36" viewBox="0 0 210 36" fill="none">
  <path d="M39.2694 15.9929H34.6533V14.3681H45.8685V15.9929H41.2524V29.1823H39.2694V15.9929Z" fill="white"></path>
  <path d="M46.9738 24.2124C47.0063 26.8248 48.6967 27.908 50.7122 27.908C52.1425 27.908 52.9877 27.6531 53.7354 27.3664L54.093 28.7681C53.4103 29.0867 52.175 29.4372 50.4521 29.4372C47.1038 29.4372 45.1208 27.2708 45.1208 24.0531C45.1208 20.8354 47.0388 18.3186 50.2246 18.3186C53.8004 18.3186 54.7106 21.3451 54.7106 23.3204C54.7106 23.7027 54.6781 23.9894 54.6456 24.2124H46.9738ZM52.7927 22.8425C52.8252 21.6319 52.2726 19.7204 50.062 19.7204C48.0465 19.7204 47.2013 21.5044 47.0388 22.8425H52.7927Z" fill="white"></path>
  <path d="M64.8854 28.8319C64.3653 29.0867 63.2275 29.4372 61.7647 29.4372C58.4814 29.4372 56.3684 27.2708 56.3684 23.9894C56.3684 20.708 58.6439 18.3186 62.2198 18.3186C63.3901 18.3186 64.4303 18.6053 64.9505 18.892L64.4953 20.3575C64.0077 20.1027 63.2926 19.8478 62.2198 19.8478C59.7167 19.8478 58.3839 21.6637 58.3839 23.862C58.3839 26.315 60.0093 27.8443 62.1548 27.8443C63.2926 27.8443 64.0077 27.5894 64.5929 27.3345L64.8854 28.8319Z" fill="white"></path>
  <path d="M67.1936 13.5717H69.1766V20.2301H69.2091C69.5342 19.6885 70.0218 19.1788 70.6394 18.8283C71.2246 18.5097 71.9072 18.2867 72.6549 18.2867C74.1178 18.2867 76.4583 19.1788 76.4583 22.8106V29.1504H74.4753V23.0655C74.4753 21.3451 73.8252 19.9115 71.9722 19.9115C70.7044 19.9115 69.6967 20.8035 69.3391 21.823C69.2416 22.1097 69.2091 22.3965 69.2091 22.7469V29.1823H67.2261V13.5717H67.1936Z" fill="white"></path>
  <path d="M79.6442 21.4407C79.6442 20.3257 79.6116 19.4336 79.5466 18.5735H81.3021L81.3996 20.3257H81.4321C81.9847 19.3381 83.22 18.3504 85.0079 18.3504C86.5033 18.3504 88.8438 19.2425 88.8438 22.8743V29.2142H86.8609V23.0655C86.8609 21.3451 86.2107 19.9115 84.3578 19.9115C83.09 19.9115 82.0822 20.8035 81.7246 21.8867C81.6271 22.1416 81.5946 22.4602 81.5946 22.7788V29.1823H79.6442V21.4407Z" fill="white"></path>
  <path d="M101.944 23.7664C101.944 27.7168 99.1488 29.4053 96.5482 29.4053C93.6225 29.4053 91.3469 27.3027 91.3469 23.9257C91.3469 20.3894 93.7525 18.2867 96.7432 18.2867C99.8314 18.3186 101.944 20.5487 101.944 23.7664ZM93.3299 23.8938C93.3299 26.2195 94.6627 27.9717 96.6132 27.9717C98.4986 27.9717 99.929 26.2195 99.929 23.8301C99.929 22.0142 99.0187 19.7522 96.6782 19.7522C94.3701 19.7841 93.3299 21.8867 93.3299 23.8938Z" fill="white"></path>
  <path d="M104.448 13.5717H106.43V18.0637V23.0973V29.1823H104.448V26.3469V13.5717Z" fill="white"></path>
  <path d="M119.564 23.7664C119.564 27.7168 116.768 29.4053 114.167 29.4053C111.242 29.4053 108.966 27.3027 108.966 23.9257C108.966 20.3894 111.372 18.2867 114.362 18.2867C117.451 18.3186 119.564 20.5487 119.564 23.7664ZM110.982 23.8938C110.982 26.2195 112.314 27.9717 114.265 27.9717C116.15 27.9717 117.581 26.2195 117.581 23.8301C117.581 22.0142 116.67 19.7522 114.33 19.7522C111.989 19.7841 110.982 21.8867 110.982 23.8938Z" fill="white"></path>
  <path d="M131.364 27.6212C131.364 30.0743 130.844 31.5717 129.803 32.4956C128.731 33.4513 127.203 33.7699 125.837 33.7699C124.537 33.7699 123.107 33.4513 122.229 32.8779L122.717 31.3805C123.432 31.8584 124.57 32.2407 125.902 32.2407C127.918 32.2407 129.413 31.2212 129.413 28.5133V27.3345H129.381C128.796 28.3221 127.593 29.1186 125.935 29.1186C123.237 29.1186 121.319 26.8885 121.319 23.9257C121.319 20.3257 123.724 18.2867 126.228 18.2867C128.113 18.2867 129.121 19.2425 129.608 20.1027H129.641L129.706 18.5097H131.461C131.396 19.2425 131.364 20.1345 131.364 21.4089V27.6212ZM129.381 22.7469C129.381 22.4283 129.348 22.1416 129.283 21.8867C128.926 20.7398 127.983 19.8159 126.52 19.8159C124.635 19.8159 123.302 21.377 123.302 23.8301C123.302 25.9327 124.407 27.6531 126.52 27.6531C127.755 27.6531 128.861 26.9204 129.251 25.6779C129.348 25.3593 129.413 24.977 129.413 24.6584V22.7469H129.381Z" fill="white"></path>
  <path d="M135.33 18.5416L137.703 24.8177C137.963 25.5186 138.256 26.3469 138.418 26.9841H138.451C138.646 26.3469 138.873 25.5186 139.133 24.754L141.279 18.5097H143.359L140.434 26.1239C139.036 29.7876 138.061 31.6354 136.695 32.7823C135.72 33.6106 134.777 33.9292 134.257 34.0248L133.77 32.4319C134.257 32.2726 134.907 31.954 135.492 31.4761C136.045 31.0619 136.695 30.2973 137.15 29.3097C137.248 29.1186 137.313 28.9593 137.313 28.8319C137.313 28.7363 137.28 28.577 137.15 28.3221L133.152 18.5097H135.33V18.5416Z" fill="white"></path>
  <path d="M147.683 24.531L146.122 29.1823H144.107L149.276 14.3681H151.616L156.785 29.1823H154.704L153.079 24.531H147.683ZM152.689 23.0336L151.161 18.7646C150.836 17.8088 150.608 16.9168 150.381 16.0566H150.348C150.121 16.9168 149.893 17.8407 149.601 18.7327L148.105 23.0336H152.689Z" fill="#93C953"></path>
  <path d="M168 13.5717V26.4425C168 27.3982 168.032 28.4814 168.097 29.1823H166.342L166.245 27.3345H166.18C165.594 28.5133 164.294 29.4372 162.506 29.4372C159.873 29.4372 157.825 27.2708 157.825 24.0212C157.793 20.485 160.068 18.3186 162.701 18.3186C164.392 18.3186 165.497 19.0832 165.984 19.9115H166.017V13.5398H168V13.5717ZM166.05 22.8743C166.05 22.6195 166.017 22.3009 165.952 22.046C165.659 20.8354 164.587 19.8159 163.091 19.8159C161.043 19.8159 159.841 21.5681 159.841 23.8938C159.841 26.0602 160.946 27.8443 163.059 27.8443C164.392 27.8443 165.594 26.9522 165.952 25.5186C166.017 25.2637 166.05 24.977 166.05 24.6903V22.8743Z" fill="#93C953"></path>
  <path d="M172.064 18.5416L174.209 24.4991C174.567 25.4867 174.859 26.3788 175.087 27.2389H175.152C175.412 26.3469 175.705 25.4867 176.062 24.4991L178.175 18.5416H180.256L175.997 29.1823H174.112L169.983 18.5416H172.064Z" fill="#93C953"></path>
  <path d="M184.319 15.5469C184.319 16.2159 183.831 16.7257 183.051 16.7257C182.336 16.7257 181.848 16.1841 181.848 15.5469C181.848 14.8779 182.336 14.3363 183.084 14.3363C183.799 14.3363 184.319 14.8779 184.319 15.5469ZM182.108 29.1823V18.5416H184.091V29.1823H182.108Z" fill="#93C953"></path>
  <path d="M195.112 28.8319C194.591 29.0867 193.454 29.4372 191.991 29.4372C188.707 29.4372 186.594 27.2708 186.594 23.9894C186.594 20.708 188.87 18.3186 192.446 18.3186C193.616 18.3186 194.656 18.6053 195.177 18.892L194.721 20.3575C194.266 20.1027 193.519 19.8478 192.446 19.8478C189.943 19.8478 188.61 21.6637 188.61 23.862C188.61 26.315 190.235 27.8443 192.381 27.8443C193.519 27.8443 194.234 27.5894 194.819 27.3345L195.112 28.8319Z" fill="#93C953"></path>
  <path d="M198.395 24.2124C198.427 26.8248 200.118 27.908 202.133 27.908C203.563 27.908 204.409 27.6531 205.156 27.3664L205.514 28.7681C204.831 29.0867 203.596 29.4372 201.873 29.4372C198.525 29.4372 196.542 27.2708 196.542 24.0531C196.542 20.8354 198.46 18.3186 201.645 18.3186C205.221 18.3186 206.132 21.3451 206.132 23.3204C206.132 23.7027 206.099 23.9894 206.067 24.2124H198.395ZM204.181 22.8425C204.214 21.6319 203.661 19.7204 201.45 19.7204C199.435 19.7204 198.59 21.5044 198.427 22.8425H204.181Z" fill="#93C953"></path>
  <path d="M9.97989 13.1894H4.48608V28.9593H9.97989V13.1894Z" fill="#93C953"></path>
  <path d="M23.5681 16.0248C23.308 14.9097 23.048 13.8584 22.7554 12.8389H22.6254C22.3653 13.8903 22.1378 14.9416 21.8777 16.0566C21.6176 17.1398 21.3576 18.1911 21.065 19.1788L20.5774 20.9947H24.8359L24.3808 19.1469C24.0882 18.1593 23.8282 17.1398 23.5681 16.0248Z" fill="#93C953"></path>
  <path d="M4.48608 2.00708V9.46195H20.0898H21.4226H25.5186L31.7276 28.9593H31.9876V2.00708H4.48608Z" fill="#93C953"></path>
  <path d="M14.531 26.8885L18.887 13.1894H14.531V26.8885Z" fill="#93C953"></path>
  <path d="M18.4644 28.9593H26.9489L25.7786 24.4035H19.6671L18.4644 28.9593Z" fill="#93C953"></path>
</svg>
